<?xml version="1.0" encoding="UTF-8" standalone="no"?>
<!-- Created with Inkscape (http://www.inkscape.org/) -->

<svg
   xmlns:dc="http://purl.org/dc/elements/1.1/"
   xmlns:cc="http://creativecommons.org/ns#"
   xmlns:rdf="http://www.w3.org/1999/02/22-rdf-syntax-ns#"
   xmlns:svg="http://www.w3.org/2000/svg"
   xmlns="http://www.w3.org/2000/svg"
   xmlns:sodipodi="http://sodipodi.sourceforge.net/DTD/sodipodi-0.dtd"
   xmlns:inkscape="http://www.inkscape.org/namespaces/inkscape"
   width="57.129604mm"
   height="57.130157mm"
   viewBox="0 0 202.42773 202.42969"
   id="svg4395"
   version="1.1"
   inkscape:version="0.91 r13725"
   sodipodi:docname="app.svg">
  <defs
     id="defs4397" />
  <sodipodi:namedview
     id="base"
     pagecolor="#ffffff"
     bordercolor="#666666"
     borderopacity="1.0"
     inkscape:pageopacity="0.0"
     inkscape:pageshadow="2"
     inkscape:zoom="0.35"
     inkscape:cx="174.78529"
     inkscape:cy="-38.785155"
     inkscape:document-units="px"
     inkscape:current-layer="layer1"
     showgrid="false"
     fit-margin-top="0"
     fit-margin-left="0"
     fit-margin-right="0"
     fit-margin-bottom="0"
     inkscape:window-width="1366"
     inkscape:window-height="704"
     inkscape:window-x="0"
     inkscape:window-y="27"
     inkscape:window-maximized="1" />
  <metadata
     id="metadata4400">
    <rdf:RDF>
      <cc:Work
         rdf:about="">
        <dc:format>image/svg+xml</dc:format>
        <dc:type
           rdf:resource="http://purl.org/dc/dcmitype/StillImage" />
        <dc:title></dc:title>
      </cc:Work>
    </rdf:RDF>
  </metadata>
  <g
     inkscape:label="Ebene 1"
     inkscape:groupmode="layer"
     id="layer1"
     transform="translate(-150.21471,-291.14736)">
    <path
       inkscape:connector-curvature="0"
       style="color:#000000;font-style:normal;font-variant:normal;font-weight:normal;font-stretch:normal;font-size:medium;line-height:normal;font-family:sans-serif;text-indent:0;text-align:start;text-decoration:none;text-decoration-line:none;text-decoration-style:solid;text-decoration-color:#000000;letter-spacing:normal;word-spacing:normal;text-transform:none;direction:ltr;block-progression:tb;writing-mode:lr-tb;baseline-shift:baseline;text-anchor:start;white-space:normal;clip-rule:nonzero;display:inline;overflow:visible;visibility:visible;opacity:1;isolation:auto;mix-blend-mode:normal;color-interpolation:sRGB;color-interpolation-filters:linearRGB;solid-color:#000000;solid-opacity:1;fill:#ffffff;fill-opacity:1;fill-rule:nonzero;stroke:none;stroke-width:1;stroke-linecap:butt;stroke-linejoin:round;stroke-miterlimit:4;stroke-dasharray:none;stroke-dashoffset:0;stroke-opacity:1;marker:none;color-rendering:auto;image-rendering:auto;shape-rendering:auto;text-rendering:auto;enable-background:accumulate"
       d="m 162.66392,291.14736 c -6.88871,0 -12.44921,5.56051 -12.44921,12.44922 l 0,177.53125 c 0,6.88871 5.5605,12.44922 12.44921,12.44922 l 177.52932,0 c 6.8887,0 12.4492,-5.56051 12.4492,-12.44922 l 0,-177.53125 c 0,-6.88871 -5.5605,-12.44922 -12.4492,-12.44922 l -177.52932,0 z m 78.75196,33.45313 a 5.7513641,5.7513641 0 0 1 5.46679,4.31054 l 16.3125,63.2168 15.31836,0 a 14.883696,15.772265 0 0 1 13.63091,-9.45703 14.883696,15.772265 0 0 1 14.8847,15.77148 14.883696,15.772265 0 0 1 -14.8847,15.77344 14.883696,15.772265 0 0 1 -14.03911,-10.58594 l -19.36328,0 a 5.7513641,5.7513641 0 0 1 -5.57031,-4.31445 L 242.65221,358.5458 226.66197,459.05361 a 5.7513641,5.7513641 0 0 1 -11.14844,0.875 l -18.31445,-56.29883 -24.14258,0 0,-11.50195 28.32032,0 a 5.7513641,5.7513641 0 0 1 5.46679,3.97266 l 12.21289,37.54297 16.57813,-104.19922 a 5.7513641,5.7513641 0 0 1 5.78125,-4.84375 z m 48.58203,28.83789 c 16.00263,0 30.79953,8.54371 38.80073,22.40234 8.0013,13.8586 8.0013,30.94607 0,44.80469 -8.0012,13.85862 -22.7981,22.40234 -38.80073,22.40234 l 0,-5.75195 c 13.95723,0 26.84173,-7.4381 33.82033,-19.52539 6.9786,-12.08731 6.9786,-26.96739 0,-39.05469 -6.9786,-12.0873 -19.8631,-19.52734 -33.82033,-19.52734 l 0,-5.75 z m 0,14.50586 c 11.00293,1e-5 21.18013,5.8755 26.68163,15.40429 5.5015,9.5288 5.5015,21.28372 0,30.8125 -5.5015,9.5288 -15.6787,15.4043 -26.68163,15.4043 l 0,-5.75195 c 8.95753,0 17.22233,-4.77183 21.70113,-12.5293 4.4788,-7.75747 4.4788,-17.30111 0,-25.05859 -4.4788,-7.75747 -12.7436,-12.5293 -21.70113,-12.5293 l 0,-5.75195 z"
       id="rect4358" />
  </g>
</svg>
