<?xml version="1.0" encoding="UTF-8" standalone="no"?>
<!-- Created with Inkscape (http://www.inkscape.org/) -->

<svg
   xmlns:dc="http://purl.org/dc/elements/1.1/"
   xmlns:cc="http://creativecommons.org/ns#"
   xmlns:rdf="http://www.w3.org/1999/02/22-rdf-syntax-ns#"
   xmlns:svg="http://www.w3.org/2000/svg"
   xmlns="http://www.w3.org/2000/svg"
   xmlns:sodipodi="http://sodipodi.sourceforge.net/DTD/sodipodi-0.dtd"
   xmlns:inkscape="http://www.inkscape.org/namespaces/inkscape"
   width="57.129604mm"
   height="57.130157mm"
   viewBox="0 0 202.42773 202.42969"
   id="svg4395"
   version="1.1"
   inkscape:version="0.91 r13725"
   sodipodi:docname="graph.svg">
  <defs
     id="defs4397" />
  <sodipodi:namedview
     id="base"
     pagecolor="#ffffff"
     bordercolor="#666666"
     borderopacity="1.0"
     inkscape:pageopacity="0.0"
     inkscape:pageshadow="2"
     inkscape:zoom="1.979899"
     inkscape:cx="71.823118"
     inkscape:cy="91.470949"
     inkscape:document-units="px"
     inkscape:current-layer="layer1"
     showgrid="false"
     fit-margin-top="0"
     fit-margin-left="0"
     fit-margin-right="0"
     fit-margin-bottom="0"
     inkscape:window-width="1366"
     inkscape:window-height="704"
     inkscape:window-x="0"
     inkscape:window-y="27"
     inkscape:window-maximized="1" />
  <metadata
     id="metadata4400">
    <rdf:RDF>
      <cc:Work
         rdf:about="">
        <dc:format>image/svg+xml</dc:format>
        <dc:type
           rdf:resource="http://purl.org/dc/dcmitype/StillImage" />
        <dc:title></dc:title>
      </cc:Work>
    </rdf:RDF>
  </metadata>
  <g
     inkscape:label="Ebene 1"
     inkscape:groupmode="layer"
     id="layer1"
     transform="translate(-150.21471,-291.14736)">
    <path
       inkscape:connector-curvature="0"
       style="color:#000000;font-style:normal;font-variant:normal;font-weight:normal;font-stretch:normal;font-size:medium;line-height:normal;font-family:sans-serif;text-indent:0;text-align:start;text-decoration:none;text-decoration-line:none;text-decoration-style:solid;text-decoration-color:#000000;letter-spacing:normal;word-spacing:normal;text-transform:none;direction:ltr;block-progression:tb;writing-mode:lr-tb;baseline-shift:baseline;text-anchor:start;white-space:normal;clip-rule:nonzero;display:inline;overflow:visible;visibility:visible;opacity:1;isolation:auto;mix-blend-mode:normal;color-interpolation:sRGB;color-interpolation-filters:linearRGB;solid-color:#000000;solid-opacity:1;fill:#000000;fill-opacity:1;fill-rule:nonzero;stroke:#000000;stroke-width:1;stroke-linecap:butt;stroke-linejoin:round;stroke-miterlimit:4;stroke-dasharray:none;stroke-dashoffset:0;stroke-opacity:1;marker:none;color-rendering:auto;image-rendering:auto;shape-rendering:auto;text-rendering:auto;enable-background:accumulate"
       d="m 241.41588,324.60049 c 2.58371,0.0456 4.81982,1.80873 5.46679,4.31054 l 16.3125,63.2168 15.31836,0 c 2.36756,-5.74176 7.71795,-9.45382 13.63091,-9.45703 8.22014,-5.9e-4 14.88429,7.06059 14.8847,15.77148 6.1e-4,8.71166 -6.66384,15.77403 -14.8847,15.77344 -6.32735,-0.008 -11.95852,-4.2537 -14.03911,-10.58594 l -19.36328,0 c -2.62347,6.1e-4 -4.91487,-1.77418 -5.57031,-4.31445 L 242.65221,358.5458 226.66197,459.05361 c -0.95103,5.96497 -9.27845,6.61856 -11.14844,0.875 l -18.31445,-56.29883 -24.14258,0 0,-11.50195 28.32032,0 c 2.49012,0.001 4.69668,1.60461 5.46679,3.97266 l 12.21289,37.54297 16.57813,-104.19922 c 0.45167,-2.82915 2.91672,-4.89446 5.78125,-4.84375 z m 48.58203,28.83789 c 16.00263,0 30.79953,8.54371 38.80073,22.40234 8.0013,13.8586 8.0013,30.94607 0,44.80469 -8.0012,13.85862 -22.7981,22.40234 -38.80073,22.40234 l 0,-5.75195 c 13.95723,0 26.84173,-7.4381 33.82033,-19.52539 6.9786,-12.08731 6.9786,-26.96739 0,-39.05469 -6.9786,-12.0873 -19.8631,-19.52734 -33.82033,-19.52734 z m 0,14.50586 c 11.00293,1e-5 21.18013,5.8755 26.68163,15.40429 5.5015,9.5288 5.5015,21.28372 0,30.8125 -5.5015,9.5288 -15.6787,15.4043 -26.68163,15.4043 l 0,-5.75195 c 8.95753,0 17.22233,-4.77183 21.70113,-12.5293 4.4788,-7.75747 4.4788,-17.30111 0,-25.05859 -4.4788,-7.75747 -12.7436,-12.5293 -21.70113,-12.5293 z"
       id="rect4358-6"
       inkscape:export-xdpi="90"
       inkscape:export-ydpi="90"
       sodipodi:nodetypes="cccccccccsccccccccccccssccsscccssccsscc" />
    <path
       inkscape:connector-curvature="0"
       style="color:#000000;font-style:normal;font-variant:normal;font-weight:normal;font-stretch:normal;font-size:medium;line-height:normal;font-family:sans-serif;text-indent:0;text-align:start;text-decoration:none;text-decoration-line:none;text-decoration-style:solid;text-decoration-color:#000000;letter-spacing:normal;word-spacing:normal;text-transform:none;direction:ltr;block-progression:tb;writing-mode:lr-tb;baseline-shift:baseline;text-anchor:start;white-space:normal;clip-rule:nonzero;display:inline;overflow:visible;visibility:visible;opacity:1;isolation:auto;mix-blend-mode:normal;color-interpolation:sRGB;color-interpolation-filters:linearRGB;solid-color:#000000;solid-opacity:1;fill:none;fill-opacity:1;fill-rule:nonzero;stroke:#000000;stroke-width:0.99509054;stroke-linecap:butt;stroke-linejoin:round;stroke-miterlimit:4;stroke-dasharray:none;stroke-dashoffset:0;stroke-opacity:1;marker:none;color-rendering:auto;image-rendering:auto;shape-rendering:auto;text-rendering:auto;enable-background:accumulate"
       d="m 163.12004,291.64999 c -6.85556,0 -12.3893,5.53265 -12.3893,12.38688 l 0,176.64235 c 0,6.85423 5.53374,12.38689 12.3893,12.38689 l 176.67507,0 c 6.85554,0 12.38928,-5.53266 12.38928,-12.38689 l 0,-176.64235 c 0,-6.85423 -5.53374,-12.38688 -12.38928,-12.38688 z"
       id="rect4358"
       inkscape:export-xdpi="90"
       inkscape:export-ydpi="90"
       sodipodi:nodetypes="sssssssss" />
  </g>
</svg>
