<?xml version="1.0" encoding="UTF-8" standalone="no"?>
<!-- Generator: Adobe Illustrator 19.0.0, SVG Export Plug-In . SVG Version: 6.00 Build 0)  -->

<svg
   xmlns:dc="http://purl.org/dc/elements/1.1/"
   xmlns:cc="http://creativecommons.org/ns#"
   xmlns:rdf="http://www.w3.org/1999/02/22-rdf-syntax-ns#"
   xmlns:svg="http://www.w3.org/2000/svg"
   xmlns="http://www.w3.org/2000/svg"
   xmlns:sodipodi="http://sodipodi.sourceforge.net/DTD/sodipodi-0.dtd"
   xmlns:inkscape="http://www.inkscape.org/namespaces/inkscape"
   version="1.1"
   id="Layer_1"
   x="0px"
   y="0px"
   viewBox="0 0 16 16"
   xml:space="preserve"
   inkscape:version="0.91 r13725"
   sodipodi:docname="icon-erase-hover.svg"
   width="16"
   height="16"><metadata
     id="metadata11"><rdf:RDF><cc:Work
         rdf:about=""><dc:format>image/svg+xml</dc:format><dc:type
           rdf:resource="http://purl.org/dc/dcmitype/StillImage" /><dc:title></dc:title></cc:Work></rdf:RDF></metadata><defs
     id="defs9" /><sodipodi:namedview
     pagecolor="#ffffff"
     bordercolor="#666666"
     borderopacity="1"
     objecttolerance="10"
     gridtolerance="10"
     guidetolerance="10"
     inkscape:pageopacity="0"
     inkscape:pageshadow="2"
     inkscape:window-width="1345"
     inkscape:window-height="697"
     id="namedview7"
     showgrid="false"
     showguides="true"
     inkscape:guide-bbox="true"
     inkscape:zoom="27.812867"
     inkscape:cx="1.6375404"
     inkscape:cy="7.9546152"
     inkscape:window-x="0"
     inkscape:window-y="27"
     inkscape:window-maximized="0"
     inkscape:current-layer="Layer_1"><sodipodi:guide
       position="-0.14381833,8.0538264"
       orientation="0,1"
       id="guide4139" /><sodipodi:guide
       position="8.0178718,16.143607"
       orientation="1,0"
       id="guide4141" /></sodipodi:namedview><style
     type="text/css"
     id="style3">
	.st0{fill:#333333;}
</style><g
     id="XMLID_7_"
     transform="matrix(0.2485968,0,0,0.2485968,-3.8978805,-3.8074905)"
     style="fill:#d40000;fill-opacity:1"><path
       id="XMLID_12_"
       class="st0"
       d="m 29,70.2 c 0,3.5 2.9,6.3 6.3,6.3 l 25.3,0 c 3.5,0 6.3,-2.9 6.3,-6.3 l 0,-38 -37.9,0 0,38 z m 7.8,-22.6 4.5,-4.5 6.7,6.7 6.7,-6.7 4.5,4.5 -6.7,6.7 6.7,6.7 -4.5,4.5 -6.7,-6.7 -6.7,6.7 -4.5,-4.5 6.7,-6.7 -6.7,-6.7 z m 22.3,-24.9 -3.2,-3.2 -15.8,0 -3.2,3.2 -11.1,0 0,6.3 44.3,0 0,-6.3 -11,0 z"
       inkscape:connector-curvature="0"
       style="fill:#d40000;fill-opacity:1" /></g></svg>